<svg width="52" height="52" viewBox="0 0 32 32" fill="none" xmlns="http://www.w3.org/2000/svg">
<rect x="2" y="2" width="28" height="28" rx="4" stroke="#99B7FF" stroke-width="2"></rect>
<mask id="mask0" style="mask-type:alpha" maskUnits="userSpaceOnUse" x="0" y="0" width="32" height="32">
<mask id="path-2-inside-1" fill="white">
<path d="M32 16C32 24.8366 24.8366 32 16 32C7.16344 32 0 24.8366 0 16C0 7.16344 7.16344 0 16 0C24.8366 0 32 7.16344 32 16ZM11.2 16C11.2 18.651 13.349 20.8 16 20.8C18.651 20.8 20.8 18.651 20.8 16C20.8 13.349 18.651 11.2 16 11.2C13.349 11.2 11.2 13.349 11.2 16Z"></path>
</mask>
<path d="M32 16C32 24.8366 24.8366 32 16 32C7.16344 32 0 24.8366 0 16C0 7.16344 7.16344 0 16 0C24.8366 0 32 7.16344 32 16ZM11.2 16C11.2 18.651 13.349 20.8 16 20.8C18.651 20.8 20.8 18.651 20.8 16C20.8 13.349 18.651 11.2 16 11.2C13.349 11.2 11.2 13.349 11.2 16Z" fill="white" stroke="#5567FF" stroke-width="4" mask="url(#path-2-inside-1)"></path>
</mask>
<g mask="url(#mask0)">
<path d="M32 16C32 24.8366 24.8366 32 16 32C7.16344 32 0 24.8366 0 16C0 7.16344 7.16344 0 16 0C24.8366 0 32 7.16344 32 16ZM11.2 16C11.2 18.651 13.349 20.8 16 20.8C18.651 20.8 20.8 18.651 20.8 16C20.8 13.349 18.651 11.2 16 11.2C13.349 11.2 11.2 13.349 11.2 16Z" fill="white"></path>
<path fill-rule="evenodd" clip-rule="evenodd" d="M20 0H12V12H1V20H12V31H20V20H31V12H20V0Z" fill="#99B7FF"></path>
<mask id="path-5-inside-2" fill="white">
<path d="M32 16C32 24.8366 24.8366 32 16 32C7.16344 32 0 24.8366 0 16C0 7.16344 7.16344 0 16 0C24.8366 0 32 7.16344 32 16ZM11.2 16C11.2 18.651 13.349 20.8 16 20.8C18.651 20.8 20.8 18.651 20.8 16C20.8 13.349 18.651 11.2 16 11.2C13.349 11.2 11.2 13.349 11.2 16Z"></path>
</mask>
<path d="M32 16C32 24.8366 24.8366 32 16 32C7.16344 32 0 24.8366 0 16C0 7.16344 7.16344 0 16 0C24.8366 0 32 7.16344 32 16ZM11.2 16C11.2 18.651 13.349 20.8 16 20.8C18.651 20.8 20.8 18.651 20.8 16C20.8 13.349 18.651 11.2 16 11.2C13.349 11.2 11.2 13.349 11.2 16Z" stroke="#5567FF" stroke-width="4" mask="url(#path-5-inside-2)"></path>
</g>
</svg>