<svg width="52" height="52" viewBox="0 0 32 32" fill="none" xmlns="http://www.w3.org/2000/svg">
<rect x="12" y="5" width="18" height="26" rx="3" fill="#CEDDFF" stroke="#5567FF" stroke-width="2"></rect>
<path d="M12 6C12 4.34315 13.3431 3 15 3H27C28.6569 3 30 4.34315 30 6V8H12V6Z" fill="white" stroke="#5567FF" stroke-width="2"></path>
<rect x="2" y="1" width="17" height="30" rx="3" fill="white" stroke="#5567FF" stroke-width="2"></rect>
<rect x="7.5" y="2.5" width="6" height="1" fill="#9159FC" stroke="#5567FF"></rect>
<mask id="path-5-inside-1" fill="white">
<path fill-rule="evenodd" clip-rule="evenodd" d="M5 7H8V10H5V7ZM9 7H12V10H9V7ZM16 7H13V10H16V7ZM5 11H8V14H5V11ZM12 11H9V14H12V11ZM13 11H16V14H13V11ZM8 15H5V18H8V15ZM9 15H12V18H9V15ZM16 15H13V18H16V15ZM5 19H8V22H5V19ZM12 19H9V22H12V19ZM5 26H16V28H5V26ZM16 19H13V22H16V19Z"></path>
</mask>
<path fill-rule="evenodd" clip-rule="evenodd" d="M5 7H8V10H5V7ZM9 7H12V10H9V7ZM16 7H13V10H16V7ZM5 11H8V14H5V11ZM12 11H9V14H12V11ZM13 11H16V14H13V11ZM8 15H5V18H8V15ZM9 15H12V18H9V15ZM16 15H13V18H16V15ZM5 19H8V22H5V19ZM12 19H9V22H12V19ZM5 26H16V28H5V26ZM16 19H13V22H16V19Z" fill="#5567FF"></path>
<path d="M8 7H9V6H8V7ZM5 7V6H4V7H5ZM8 10V11H9V10H8ZM5 10H4V11H5V10ZM12 7H13V6H12V7ZM9 7V6H8V7H9ZM12 10V11H13V10H12ZM9 10H8V11H9V10ZM13 7V6H12V7H13ZM16 7H17V6H16V7ZM13 10H12V11H13V10ZM16 10V11H17V10H16ZM8 11H9V10H8V11ZM5 11V10H4V11H5ZM8 14V15H9V14H8ZM5 14H4V15H5V14ZM9 11V10H8V11H9ZM12 11H13V10H12V11ZM9 14H8V15H9V14ZM12 14V15H13V14H12ZM16 11H17V10H16V11ZM13 11V10H12V11H13ZM16 14V15H17V14H16ZM13 14H12V15H13V14ZM5 15V14H4V15H5ZM8 15H9V14H8V15ZM5 18H4V19H5V18ZM8 18V19H9V18H8ZM12 15H13V14H12V15ZM9 15V14H8V15H9ZM12 18V19H13V18H12ZM9 18H8V19H9V18ZM13 15V14H12V15H13ZM16 15H17V14H16V15ZM13 18H12V19H13V18ZM16 18V19H17V18H16ZM8 19H9V18H8V19ZM5 19V18H4V19H5ZM8 22V23H9V22H8ZM5 22H4V23H5V22ZM9 19V18H8V19H9ZM12 19H13V18H12V19ZM9 22H8V23H9V22ZM12 22V23H13V22H12ZM16 26H17V25H16V26ZM5 26V25H4V26H5ZM16 28V29H17V28H16ZM5 28H4V29H5V28ZM13 19V18H12V19H13ZM16 19H17V18H16V19ZM13 22H12V23H13V22ZM16 22V23H17V22H16ZM8 6H5V8H8V6ZM9 10V7H7V10H9ZM5 11H8V9H5V11ZM4 7V10H6V7H4ZM12 6H9V8H12V6ZM13 10V7H11V10H13ZM9 11H12V9H9V11ZM8 7V10H10V7H8ZM13 8H16V6H13V8ZM14 10V7H12V10H14ZM16 9H13V11H16V9ZM15 7V10H17V7H15ZM8 10H5V12H8V10ZM9 14V11H7V14H9ZM5 15H8V13H5V15ZM4 11V14H6V11H4ZM9 12H12V10H9V12ZM10 14V11H8V14H10ZM12 13H9V15H12V13ZM11 11V14H13V11H11ZM16 10H13V12H16V10ZM17 14V11H15V14H17ZM13 15H16V13H13V15ZM12 11V14H14V11H12ZM5 16H8V14H5V16ZM6 18V15H4V18H6ZM8 17H5V19H8V17ZM7 15V18H9V15H7ZM12 14H9V16H12V14ZM13 18V15H11V18H13ZM9 19H12V17H9V19ZM8 15V18H10V15H8ZM13 16H16V14H13V16ZM14 18V15H12V18H14ZM16 17H13V19H16V17ZM15 15V18H17V15H15ZM8 18H5V20H8V18ZM9 22V19H7V22H9ZM5 23H8V21H5V23ZM4 19V22H6V19H4ZM9 20H12V18H9V20ZM10 22V19H8V22H10ZM12 21H9V23H12V21ZM11 19V22H13V19H11ZM16 25H5V27H16V25ZM17 28V26H15V28H17ZM5 29H16V27H5V29ZM4 26V28H6V26H4ZM13 20H16V18H13V20ZM14 22V19H12V22H14ZM16 21H13V23H16V21ZM15 19V22H17V19H15Z" fill="#5567FF" mask="url(#path-5-inside-1)"></path>
<path fill-rule="evenodd" clip-rule="evenodd" d="M26 12H20V14H26V12ZM27 16H20V18H27V16ZM20 20H25V22H20V20ZM27 26H20V28H27V26Z" fill="#5567FF"></path>
</svg>