<svg xmlns:xlink="http://www.w3.org/1999/xlink" xmlns="http://www.w3.org/2000/svg" width="52" height="52" viewBox="0 0 32 32" fill="none"><mask id="path-1-inside-target" fill="#FFFFFF"><path fill-rule="evenodd" clip-rule="evenodd" d="M16 28C22.6274 28 28 22.6274 28 16C28 9.37258 22.6274 4 16 4C9.37258 4 4 9.37258 4 16C4 22.6274 9.37258 28 16 28ZM16 30C23.732 30 30 23.732 30 16C30 8.26801 23.732 2 16 2C8.26801 2 2 8.26801 2 16C2 23.732 8.26801 30 16 30Z" fill="#FFFFFF"></path></mask><path fill-rule="evenodd" clip-rule="evenodd" d="M16 28C22.6274 28 28 22.6274 28 16C28 9.37258 22.6274 4 16 4C9.37258 4 4 9.37258 4 16C4 22.6274 9.37258 28 16 28ZM16 30C23.732 30 30 23.732 30 16C30 8.26801 23.732 2 16 2C8.26801 2 2 8.26801 2 16C2 23.732 8.26801 30 16 30Z" fill="#5567FF"></path><path d="M26 16C26 21.5228 21.5228 26 16 26V30C23.732 30 30 23.732 30 16H26ZM16 6C21.5228 6 26 10.4772 26 16H30C30 8.26801 23.732 2 16 2V6ZM6 16C6 10.4772 10.4772 6 16 6V2C8.26801 2 2 8.26801 2 16H6ZM16 26C10.4772 26 6 21.5228 6 16H2C2 23.732 8.26801 30 16 30V26ZM28 16C28 22.6274 22.6274 28 16 28V32C24.8366 32 32 24.8366 32 16H28ZM16 4C22.6274 4 28 9.37258 28 16H32C32 7.16344 24.8366 0 16 0V4ZM4 16C4 9.37258 9.37258 4 16 4V0C7.16344 0 0 7.16344 0 16H4ZM16 28C9.37258 28 4 22.6274 4 16H0C0 24.8366 7.16344 32 16 32V28Z" fill="#5567FF" mask="url(#path-1-inside-target)"></path><circle cx="16" cy="16" r="11" stroke="#C1D1F7" stroke-width="2px" fill="none"></circle><path fill-rule="evenodd" clip-rule="evenodd" d="M15 17V20.9C13.0409 20.5023 11.4977 18.9591 11.1 17H15ZM17 17V20.9C18.9591 20.5023 20.5023 18.9591 20.9 17H17ZM20.9 15H17V11.1C18.9591 11.4977 20.5023 13.0409 20.9 15ZM15 15H11.1C11.4977 13.0409 13.0409 11.4977 15 11.1V15ZM16 23C19.866 23 23 19.866 23 16C23 12.134 19.866 9 16 9C12.134 9 9 12.134 9 16C9 19.866 12.134 23 16 23Z" fill="#5567FF"></path><path fill-rule="evenodd" clip-rule="evenodd" d="M15 0H17V7H15V0ZM15 25H17V32H15V25ZM32 15V17H25V15H32ZM7 15V17H0V15H7Z" fill="#5567FF"></path></svg>