<svg xmlns="http://www.w3.org/2000/svg" width="52" height="52" viewBox="0 0 32 32" fill="none"><mask id="gmail-small" style="mask-type:alpha" maskUnits="userSpaceOnUse" x="0" y="0" width="30" height="22"><rect x="1" y="1" width="28" height="20" rx="1" fill="white" stroke="#5567FF" stroke-width="2"></rect></mask><g mask="url(#gmail-small)"><rect x="1" y="1" width="28" height="20" rx="1" fill="white" stroke="#5567FF" stroke-width="2"></rect><path d="M14.2758 7.23269L1.31485 21H28.686L15.7322 7.23289C15.3374 6.81332 14.6707 6.81323 14.2758 7.23269Z" fill="white" stroke="#5567FF" stroke-width="2"></path><path d="M14.3201 12.9882L1.52928 1H28.4717L15.688 12.988C15.3034 13.3486 14.7048 13.3487 14.3201 12.9882Z" fill="#99B7FF" stroke="#5567FF" stroke-width="2"></path></g>s
<path d="M15 23C15 18.5817 18.5817 15 23 15C27.4183 15 31 18.5817 31 23V31H23C18.5817 31 15 27.4183 15 23Z" fill="white" stroke="#5567FF" stroke-width="2"></path><rect x="19" y="20" width="8" height="2" fill="#5567FF"></rect><rect x="19" y="24" width="5" height="2" fill="#5567FF"></rect></svg>