<svg xmlns="http://www.w3.org/2000/svg" xmlns:xlink="http://www.w3.org/1999/xlink" viewBox="0 0 315 130" width="185.92" height="36.62">
    <defs>
        <style>
            .lightSvgLogo{fill:#ffffff;}
        </style>
    </defs>
    <g class="cls-1">
        <g id="Layer_2" data-name="Layer 2">
        <path fill="#22a2e1" d="M39.8,68.3c9.1,6.5,18.3,13,27.4,19.5c0.1,0.1,0.2,0.2,0.4,0.1c0-0.1,0-0.2,0-0.3c0-7.2,0-14.3,0-21.5 c0-0.4-0.2-0.6-0.4-0.8c-2.6-1.9-5.3-3.7-7.9-5.6c-1.2-0.8-2.4-1.7-3.6-2.6c4.3-2.8,8.5-5.5,12.7-8.3C49.9,35.7,31.5,22.6,13,9.3 c0,0.9,0,1.7,0,2.6c0,6.4,0,12.8,0,19.2c0,0.4,0.1,0.7,0.5,0.9c1.1,0.8,2.2,1.6,3.3,2.4C24,39.6,31.4,44.8,38.6,50 c3.3,2.3,6.6,4.7,9.9,7.1c-0.2,0.2-0.4,0.3-0.6,0.4c-2.7,1.7-5.3,3.5-8,5.2c-0.4,0.3-0.7,0.3-1.1,0C31.2,57.3,23.6,51.9,16,46.5 c-1-0.7-2-1.4-3-2.1c0,0.2,0,0.2,0,0.3c0,7.4,0,14.8,0,22.2c0,0.4,0.2,0.6,0.5,0.8c2.8,2,5.7,4,8.5,6c0.5,0.3,0.4,0.5,0,0.8 c-3.1,2-6.2,4.1-9.4,6.1c-0.6,0.4-1.1,0.7-1.7,1.1c-0.6,0.5-0.6,0.7,0,1.1c3,2.1,5.9,4.3,8.9,6.4c15.8,11.3,31.6,22.5,47.5,33.8 c0.1,0.1,0.2,0.3,0.4,0.1c0,0,0,0,0-0.1c0-7.2,0-14.3,0-21.5c0-0.4-0.2-0.5-0.4-0.7c-1.7-1.2-3.5-2.4-5.2-3.6 C52,90.2,41.9,83,31.8,75.8c-0.7-0.5-1.4-1-2.1-1.6c3.1-2.1,6.2-4,9.2-6C39.3,67.9,39.5,68.1,39.8,68.3z M38.5,44.9 c-7.5-5.3-15-10.6-22.5-16c-0.4-0.3-0.5-0.5-0.5-1c0-3.7,0-7.4,0-11.1c0-0.2,0-0.4,0-0.7C30.8,27,46,37.8,61.3,48.7 c-1.9,1.2-3.6,2.4-5.4,3.6c-1.1,0.7-2.1,1.4-3.2,2.1c-0.4,0.2-0.6,0.2-0.9,0C47.3,51.2,42.9,48.1,38.5,44.9z M49.2,61.4 c0.8-0.5,1.7-1.1,2.5-1.6c0.3-0.2,0.5-0.2,0.8,0c4.1,2.9,8.2,5.9,12.3,8.8c0.2,0.1,0.4,0.3,0.4,0.6c0,4.1,0,8.1,0,12.3 c-7.5-5.3-14.8-10.6-22.3-15.9C45,64.2,47.1,62.8,49.2,61.4z M64.7,104.1c0.2,0.2,0.4,0.3,0.4,0.7c0,3.9,0,7.7,0,11.6 c0,0,0,0.1-0.1,0.2c-15.9-11.4-31.9-22.7-47.9-34.2c1.4-0.9,2.7-1.8,4-2.6c1.5-1,3.1-2,4.6-3c0.3-0.2,0.5-0.2,0.7,0 C39.2,85.9,52,95,64.7,104.1z M26.5,71.5c-0.3,0.2-0.4,0.1-0.7-0.1c-3.3-2.4-6.7-4.8-10-7.1c-0.2-0.1-0.3-0.3-0.3-0.6 c0-4.2,0-8.4,0-12.7c6.8,4.8,13.5,9.6,20.3,14.4C32.6,67.5,29.5,69.5,26.5,71.5z"/>
            <g id="Layer_1-2" data-name="Layer 1">
                <g>
                    <path class="lightSvgLogo" d="M153.3,49c3.6,2,6.4,4.8,8.4,8.4l-7.1,5c-3.3-5.2-7.7-7.8-13.2-7.8c-4.3,0-7.9,1.4-10.7,4.3c-2.8,2.8-4.2,6.5-4.2,11 c0,4.4,1.4,8.1,4.2,10.9c2.8,2.8,6.4,4.2,10.7,4.2c5.6,0,10-2.6,13.2-7.8l7.1,5c-2,3.6-4.8,6.4-8.4,8.4s-7.6,3-12,3 c-6.9,0-12.7-2.3-17.5-6.9c-4.7-4.6-7.1-10.3-7.1-17s2.4-12.4,7.1-17c4.8-4.6,10.6-6.9,17.5-6.9C145.8,46,149.8,47,153.3,49z"/>
	                <path class="lightSvgLogo" d="M208.7,93l-12-16.3h-6.9V93h-9.5V46.8h17.4c4.9,0,8.9,1.4,12,4.1s4.7,6.3,4.7,10.8c0,2.9-0.7,5.5-2.2,7.8 c-1.4,2.3-3.4,4-6,5.3L219.3,93H208.7z M189.8,68.4h7.9c2.2,0,3.9-0.6,5.1-1.8c1.2-1.2,1.9-2.8,1.9-4.8c0-2-0.6-3.5-1.9-4.8 s-3-1.8-5.1-1.8h-7.9V68.4z"/>
	                <path class="lightSvgLogo" d="M280.8,46v47h-9.5V68.3l-11.6,14.6h-3.1l-11.6-14.6V93h-9.5V46h3.1L258.2,71L277.8,46H280.8z"/>
                </g>
            </g>
        </g>
    </g>
</svg>